name C:\Users\antoi\Documents\MyRepositories\upper-imu-dc\Results\main_tracking\Case_69\FLX01_orientations_groundFrame.mot
datacolumns 13
datarows 14
range 5.01000000 5.14000000
endheader 
time	radius_imu_[0][0]	radius_imu_[0][1]	radius_imu_[0][2]	radius_imu_[1][0]	radius_imu_[1][1]	radius_imu_[1][2]	radius_imu_[2][0]	radius_imu_[2][1]	radius_imu_[2][2]	radius_imu_x	radius_imu_y	radius_imu_z	
          5.01000000	          0.26259784	         -0.89789632	          0.35330521	         -0.32129890	          0.26389095	          0.90946610	         -0.90984031	         -0.35234041	         -0.21919590	         -1.80730178	          0.36110182	          1.28627218	
          5.02000000	          0.26513821	         -0.89211496	          0.36583144	         -0.31521924	          0.27836484	          0.90727606	         -0.91122915	         -0.35587065	         -0.20740665	         -1.79553815	          0.37452601	          1.28190863	
          5.03000000	          0.26769318	         -0.88623160	          0.37806601	         -0.30889986	          0.29273454	          0.90492396	         -0.91264519	         -0.35902650	         -0.19539378	         -1.78345441	          0.38770636	          1.27745270	
          5.04000000	          0.27025421	         -0.88026925	          0.38998553	         -0.30237464	          0.30696163	          0.90241018	         -0.91407452	         -0.36180189	         -0.18321343	         -1.77110054	          0.40061587	          1.27291796	
          5.05000000	          0.27281518	         -0.87424784	          0.40157514	         -0.29567598	          0.32101509	          0.89973609	         -0.91550401	         -0.36419778	         -0.17091630	         -1.75852227	          0.41323611	          1.26831507	
          5.06000000	          0.27537095	         -0.86818411	          0.41282828	         -0.28883701	          0.33487083	          0.89690284	         -0.91692095	         -0.36622107	         -0.15855001	         -1.74576374	          0.42555712	          1.26365320	
          5.07000000	          0.27791579	         -0.86209147	          0.42374652	         -0.28189432	          0.34851114	          0.89391027	         -0.91831281	         -0.36788351	         -0.14616194	         -1.73287064	          0.43757757	          1.25894148	
          5.08000000	          0.28044186	         -0.85597994	          0.43433940	         -0.27489024	          0.36192405	          0.89075605	         -0.91966718	         -0.36920094	         -0.13380187	         -1.71989319	          0.44930476	          1.25419053	
          5.09000000	          0.28293811	         -0.84985618	          0.44462400	         -0.26787415	          0.37510258	          0.88743535	         -0.92097202	         -0.37019255	         -0.12152368	         -1.70688794	          0.46075444	          1.24941359	
          5.10000000	          0.28538997	         -0.84372356	          0.45462416	         -0.26090223	          0.38804423	          0.88394101	         -0.92221613	         -0.37088035	         -0.10938543	         -1.69391783	          0.47195020	          1.24462681	
          5.11000000	          0.28777973	         -0.83758223	          0.46436929	         -0.25403568	          0.40075032	          0.88026420	         -0.92338979	         -0.37128856	         -0.09744795	         -1.68105047	          0.48292233	          1.23984884	
          5.12000000	          0.29008759	         -0.83142932	          0.47389289	         -0.24733785	          0.41322555	          0.87639525	         -0.92448536	         -0.37144303	         -0.08577234	         -1.66835510	          0.49370636	          1.23509976	
          5.13000000	          0.29229276	         -0.82525927	          0.48323088	         -0.24087117	          0.42547747	          0.87232448	         -0.92549771	         -0.37137052	         -0.07441719	         -1.65589934	          0.50434132	          1.23039992	
          5.14000000	          0.29437454	         -0.81906422	          0.49241998	         -0.23469436	          0.43751588	          0.86804286	         -0.92642441	         -0.37109791	         -0.06343621	         -1.64374623	          0.51486801	          1.22576892	
